<svg width="25" height="25" viewBox="0 0 25 25" fill="none" xmlns="http://www.w3.org/2000/svg">
<path fill-rule="evenodd" clip-rule="evenodd" d="M4.50855 2.97144C4.92046 2.55953 5.47913 2.32812 6.06166 2.32812H19.2402C19.8227 2.32812 20.3814 2.55953 20.7933 2.97144C21.2052 3.38335 21.4366 3.94202 21.4366 4.52455V18.4352C21.4366 19.0178 21.2052 19.5764 20.7933 19.9883C20.3814 20.4003 19.8227 20.6317 19.2402 20.6317H18.5081V22.096C18.5081 22.5003 18.1803 22.8281 17.7759 22.8281C17.3716 22.8281 17.0438 22.5003 17.0438 22.096V20.6317H8.25808V22.096C8.25808 22.5003 7.93029 22.8281 7.52594 22.8281C7.12159 22.8281 6.7938 22.5003 6.7938 22.096V20.6317H6.06166C5.47913 20.6317 4.92046 20.4003 4.50855 19.9883C4.09664 19.5764 3.86523 19.0178 3.86523 18.4352V4.52455C3.86523 3.94202 4.09664 3.38335 4.50855 2.97144ZM5.32952 13.3103V18.4352C5.32952 18.6294 5.40665 18.8156 5.54396 18.9529C5.68126 19.0902 5.86748 19.1674 6.06166 19.1674H19.2402C19.4344 19.1674 19.6206 19.0903 19.7579 18.9529C19.8952 18.8156 19.9724 18.6294 19.9724 18.4352V13.3103H5.32952ZM19.9724 11.846H5.32952V4.52455C5.32952 4.33037 5.40665 4.14415 5.54396 4.00685C5.68126 3.86954 5.86748 3.79241 6.06166 3.79241H19.2402C19.4344 3.79241 19.6206 3.86954 19.7579 4.00685C19.8952 4.14415 19.9724 4.33037 19.9724 4.52455V11.846Z" fill="#97A1AF"/>
<path fill-rule="evenodd" clip-rule="evenodd" d="M8.25837 16.6049C8.35546 16.6049 8.44857 16.5663 8.51722 16.4977C8.58587 16.429 8.62444 16.3359 8.62444 16.2388C8.62444 16.1417 8.58587 16.0486 8.51722 15.98C8.44857 15.9113 8.35546 15.8728 8.25837 15.8728C8.16128 15.8728 8.06817 15.9113 7.99952 15.98C7.93086 16.0486 7.8923 16.1418 7.8923 16.2388C7.8923 16.3359 7.93086 16.429 7.99952 16.4977C8.06817 16.5663 8.16128 16.6049 8.25837 16.6049ZM7.48182 15.4623C7.68777 15.2563 7.96711 15.1406 8.25837 15.1406C8.54963 15.1406 8.82897 15.2563 9.03492 15.4623C9.24088 15.6682 9.35658 15.9476 9.35658 16.2388C9.35658 16.5301 9.24088 16.8094 9.03492 17.0154C8.82897 17.2213 8.54963 17.3371 8.25837 17.3371C7.96711 17.3371 7.68777 17.2213 7.48182 17.0154C7.27586 16.8094 7.16016 16.5301 7.16016 16.2388C7.16016 15.9476 7.27586 15.6682 7.48182 15.4623ZM17.0441 16.6049C17.1412 16.6049 17.2343 16.5663 17.3029 16.4977C17.3716 16.429 17.4101 16.3359 17.4101 16.2388C17.4101 16.1418 17.3716 16.0486 17.3029 15.98C17.2343 15.9113 17.1412 15.8728 17.0441 15.8728C16.947 15.8728 16.8539 15.9113 16.7852 15.98C16.7166 16.0486 16.678 16.1418 16.678 16.2388C16.678 16.3359 16.7166 16.429 16.7852 16.4977C16.8539 16.5663 16.947 16.6049 17.0441 16.6049ZM16.2675 15.4623C16.4735 15.2563 16.7528 15.1406 17.0441 15.1406C17.3353 15.1406 17.6147 15.2563 17.8206 15.4623C18.0266 15.6682 18.1423 15.9476 18.1423 16.2388C18.1423 16.5301 18.0266 16.8094 17.8206 17.0154C17.6147 17.2213 17.3353 17.3371 17.0441 17.3371C16.7528 17.3371 16.4735 17.2213 16.2675 17.0154C16.0616 16.8094 15.9459 16.5301 15.9459 16.2388C15.9459 15.9476 16.0616 15.6682 16.2675 15.4623Z" fill="#97A1AF"/>
</svg>
