<svg width="19" height="19" viewBox="0 0 19 19" fill="none" xmlns="http://www.w3.org/2000/svg">
<path d="M18.4503 0.530016C18.1575 0.237291 17.6829 0.237277 17.3902 0.529984L9.67123 8.248L1.96173 0.536629C1.6688 0.243621 1.19375 0.243705 0.90092 0.536815C0.608332 0.829679 0.608415 1.30424 0.901106 1.597L8.61123 9.309L0.895203 17.025C0.602429 17.3178 0.602205 17.7924 0.894703 18.0855C1.18762 18.3789 1.66305 18.3791 1.9562 18.0859L9.67123 10.369L17.3972 18.094C17.6899 18.3867 18.1645 18.3867 18.4572 18.094C18.75 17.8013 18.75 17.3267 18.4573 17.034L10.7332 9.309L18.4503 1.59005C18.743 1.2973 18.743 0.822728 18.4503 0.530016Z" fill="#CED2DA"/>
</svg>
