<svg width="19" height="19" viewBox="0 0 19 19" fill="none" xmlns="http://www.w3.org/2000/svg">
<path fill-rule="evenodd" clip-rule="evenodd" d="M13.9852 0.774919C14.7475 -0.0243895 16.0135 -0.0543517 16.8128 0.707999L18.2601 2.08836C19.0594 2.85071 19.0894 4.11668 18.327 4.91599L6.37796 17.4443C6.11733 17.7176 5.78466 17.9115 5.41844 18.0036L2.06287 18.8474C1.34965 19.0268 0.693318 18.4008 0.838735 17.6799L1.52289 14.2882C1.59756 13.918 1.7755 13.5765 2.03613 13.3033L13.9852 0.774919ZM15.7776 1.79346L17.2248 3.17382C17.4247 3.3644 17.4321 3.6809 17.2416 3.88072L16.2344 4.93673L14.0635 2.86619L15.0706 1.81019C15.2612 1.61036 15.5777 1.60287 15.7776 1.79346ZM13.1681 3.80493L3.12158 14.3385C3.05643 14.4068 3.01194 14.4922 2.99327 14.5848L2.46587 17.1994L5.05262 16.5489C5.14417 16.5259 5.22734 16.4774 5.2925 16.4091L15.3391 5.87547L13.1681 3.80493Z" fill="#97A1AF"/>
</svg>
