<svg width="119" height="32" viewBox="0 0 119 32" fill="none" xmlns="http://www.w3.org/2000/svg">
<path d="M117.519 20.3216V18.4968C117.519 17.7322 117.351 16.9785 117.026 16.2869L113.394 8.53873C112.57 6.78143 110.805 5.65917 108.863 5.65917H101.703C100.637 5.65917 99.7248 6.42011 99.5332 7.46938L97.2084 20.2066C97.1445 20.5533 96.8434 20.8052 96.4912 20.8052C96.0386 20.8052 95.6956 20.3982 95.7722 19.953L98.7521 2.52048C98.9273 1.48946 98.1335 0.547852 97.0879 0.547852H56.8434C55.4821 0.547852 54.3799 1.65004 54.3799 3.01136C54.3799 4.37267 55.4821 5.47486 56.8434 5.47486H66.4857C67.7302 5.47486 68.6737 6.5953 68.4638 7.81975C68.2996 8.78325 67.4638 9.48946 66.4857 9.48946H59.9456C58.5843 9.48946 57.4821 10.5916 57.4821 11.953C57.4821 13.3143 58.5843 14.4165 59.9456 14.4165H64.9584C66.2029 14.4165 67.1463 15.5369 66.9365 16.7614L66.3762 20.0351C66.3051 20.4457 66.077 20.8125 65.7412 21.0606C65.4292 21.2887 65.2102 21.6537 65.1609 22.0789L64.9729 23.7431C64.8762 24.6062 65.5094 25.3654 66.3288 25.3654H68.9237C69.3489 25.3654 69.7029 25.0442 69.7503 24.6227C70.1025 21.4457 72.6865 18.9785 75.8233 18.9785C78.9602 18.9785 81.5423 21.4457 81.8963 24.6227C81.9438 25.0442 82.2978 25.3654 82.7229 25.3654H100.679C101.104 25.3654 101.458 25.0442 101.506 24.6227C101.858 21.4457 104.442 18.9785 107.579 18.9785C110.716 18.9785 113.298 21.4457 113.652 24.6227C113.699 25.0442 114.053 25.3654 114.478 25.3654H116.884C117.575 25.3654 118.157 24.8179 118.239 24.088L118.427 22.4238C118.488 21.8964 118.272 21.4092 117.911 21.1081C117.674 20.911 117.524 20.6281 117.524 20.3197L117.519 20.3216ZM112.261 14.9402H102.424C102.112 14.9402 101.876 14.6573 101.933 14.3508L102.845 9.3526C102.889 9.11537 103.095 8.94201 103.336 8.94201H108.712C110.04 8.94201 111.219 9.78873 111.644 11.0479L112.734 14.2814C112.843 14.6044 112.603 14.9402 112.261 14.9402Z" fill="#1975FF"/>
<path d="M80.0304 26.5495C80.8871 23.9742 79.6629 21.2483 77.2961 20.4609C74.9292 19.6736 72.3161 21.123 71.4594 23.6983C70.6027 26.2736 71.8269 28.9996 74.1937 29.7869C76.5606 30.5743 79.1737 29.1248 80.0304 26.5495Z" fill="#1975FF"/>
<path d="M111.762 26.5495C112.619 23.9742 111.394 21.2483 109.028 20.4609C106.661 19.6736 104.048 21.123 103.191 23.6983C102.334 26.2736 103.558 28.9996 105.925 29.7869C108.292 30.5743 110.905 29.1248 111.762 26.5495Z" fill="#1975FF"/>
<path d="M49.9095 0.547852H45.5299C44.1694 0.547852 43.0664 1.6508 43.0664 3.01135C43.0664 4.37191 44.1694 5.47486 45.5299 5.47486H49.9095C51.27 5.47486 52.373 4.37191 52.373 3.01135C52.373 1.6508 51.27 0.547852 49.9095 0.547852Z" fill="#1975FF"/>
<path d="M53.0112 9.48926H51.5514C50.1908 9.48926 49.0879 10.5922 49.0879 11.9528C49.0879 13.3133 50.1908 14.4163 51.5514 14.4163H53.0112C54.3718 14.4163 55.4748 13.3133 55.4748 11.9528C55.4748 10.5922 54.3718 9.48926 53.0112 9.48926Z" fill="#1975FF"/>
<path d="M11.6433 2.70902V12H1.34535V2.70902H3.29216V10.4426H5.57463V2.70902H7.41403V10.4426H9.70992V2.70902H11.6433ZM20.6132 12H18.6664V8.2675C18.6664 6.99648 18.7604 5.80601 18.9483 4.69611L16.0214 12H13.6047V2.70902H15.5515V6.4818C15.5515 7.23367 15.5246 7.86023 15.4709 8.36148C15.4262 8.85378 15.3591 9.39978 15.2695 9.99949L18.2502 2.70902H20.6132V12ZM32.589 7.3008C32.589 8.63448 32.2041 9.64593 31.4344 10.3351C30.6646 11.0154 29.595 11.3779 28.2255 11.4227V12.5102H26.3055V11.4092C24.9181 11.3466 23.844 10.9796 23.0832 10.3083C22.3224 9.62803 21.942 8.63896 21.942 7.34108C21.942 6.00741 22.3269 5.00044 23.0966 4.32017C23.8664 3.63096 24.936 3.26397 26.3055 3.21922V2.21225H28.2255V3.23264C29.6129 3.2953 30.687 3.66676 31.4478 4.34702C32.2086 5.01834 32.589 6.00293 32.589 7.3008ZM28.1449 10.1606C28.9953 10.1069 29.6129 9.8518 29.9977 9.3953C30.3826 8.93881 30.5751 8.24064 30.5751 7.3008C30.5751 6.37887 30.3782 5.68965 29.9843 5.23316C29.5905 4.77667 28.9774 4.52604 28.1449 4.48129V10.1606ZM23.9559 7.34108C23.9559 8.26302 24.1528 8.95224 24.5467 9.40873C24.9405 9.86522 25.5537 10.1158 26.3861 10.1606V4.48129C25.5358 4.53499 24.9181 4.79009 24.5333 5.24659C24.1484 5.70308 23.9559 6.40124 23.9559 7.34108ZM39.6052 2.70902L39.3904 4.25304H37.0408V12H35.0671V4.25304H32.5967V2.70902H39.6052Z" fill="#1975FF"/>
<path d="M3.77551 18.0371C5.22554 18.0371 6.38468 18.3683 7.25291 19.0307C8.13009 19.6841 8.56869 20.888 8.56869 22.6424C8.56869 24.3609 8.13905 25.5738 7.27976 26.2809C6.42943 26.979 5.33743 27.3281 4.00375 27.3281H1.34535V18.0371H3.77551ZM3.31901 19.4872V25.8781H4.12459C4.88541 25.8781 5.47169 25.6454 5.88343 25.1799C6.30412 24.7055 6.51447 23.8597 6.51447 22.6424C6.51447 21.801 6.40706 21.1476 6.19224 20.6821C5.98637 20.2167 5.70889 19.9034 5.35981 19.7423C5.01072 19.5722 4.58556 19.4872 4.08431 19.4872H3.31901ZM15.6227 18.0371L15.4079 19.4738H12.0513V21.8905H14.9783V23.3137H12.0513V25.8781H15.6496V27.3281H10.0777V18.0371H15.6227ZM19.1447 18.0371V25.7438H22.8235L22.6087 27.3281H17.171V18.0371H19.1447ZM25.9758 18.0371V27.3281H24.0022V18.0371H25.9758ZM34.6888 18.0371L32.0169 27.3281H29.6136L26.8478 18.0371H28.9557L30.8488 25.6901L32.6748 18.0371H34.6888ZM41.1117 18.0371L40.8968 19.4738H37.5403V21.8905H40.4672V23.3137H37.5403V25.8781H41.1385V27.3281H35.5666V18.0371H41.1117ZM45.6406 23.6896H44.6336V27.3281H42.66V18.0371H45.5601C46.8042 18.0371 47.7396 18.2699 48.3661 18.7353C48.9927 19.1918 49.306 19.8855 49.306 20.8164C49.306 21.425 49.1538 21.9263 48.8495 22.3201C48.5541 22.714 48.0931 23.0496 47.4666 23.3271L49.8699 27.3281H47.6277L45.6406 23.6896ZM44.6336 22.2933H45.6675C46.1956 22.2933 46.5939 22.1769 46.8624 21.9442C47.1309 21.7025 47.2652 21.3266 47.2652 20.8164C47.2652 20.342 47.122 19.9974 46.8356 19.7826C46.5581 19.5588 46.1195 19.4469 45.5198 19.4469H44.6336V22.2933ZM57.4018 18.0371L54.4212 23.8239V27.3281H52.4475V23.8373L49.4669 18.0371H51.6285L53.4813 22.253L55.3207 18.0371H57.4018Z" fill="#1975FF"/>
</svg>
