<svg width="25" height="25" viewBox="0 0 25 25" fill="none" xmlns="http://www.w3.org/2000/svg">
<path d="M9.95811 11.8203L3.80973 7.01904C3.46735 6.75118 3.24325 6.35995 3.18668 5.93132C3.13011 5.50268 3.24569 5.0717 3.50803 4.73307L3.57184 4.65529L3.73504 4.4881C4.02185 4.20142 4.38729 4.00583 4.78664 3.92528C5.18599 3.84473 5.60193 3.88271 5.98356 4.03456L14.186 7.29695L16.8021 4.5011C17.2691 4.00062 17.9107 3.69804 18.5983 3.65402C19.2858 3.60999 19.9686 3.82778 20.5097 4.26373L20.6643 4.39865L20.7292 4.46354C21.8044 5.53874 21.8175 7.26869 20.7487 8.33752L17.8967 11.0057L21.1591 19.2101C21.311 19.5918 21.349 20.0077 21.2684 20.4071C21.1879 20.8064 20.9923 21.1718 20.7056 21.4587L20.6112 21.5531C20.4492 21.715 20.2541 21.8402 20.0388 21.9202C19.8235 22.0003 19.5929 22.0333 19.3624 22.0173C19.1319 22.0012 18.9067 21.9363 18.7018 21.8269C18.4968 21.7176 18.3168 21.5662 18.1737 21.383L13.3714 15.2336L11.1943 17.2689L11.9255 19.8841C12.0165 20.2092 12.0203 20.5513 11.9365 20.8757C11.8526 21.2001 11.6842 21.4952 11.4481 21.7312C11.1873 21.992 10.8321 22.1369 10.4604 22.1341C10.0888 22.1312 9.7313 21.9809 9.46652 21.7161L8.00298 20.2526L7.83169 20.3979C7.42051 20.7128 6.90657 20.8656 6.3857 20.8278C5.86484 20.7901 5.3726 20.5644 5.00078 20.1928C4.62895 19.8212 4.40293 19.3291 4.36485 18.8083C4.32676 18.2874 4.47922 17.7734 4.79379 17.362L4.94011 17.1897L3.47656 15.7262C3.21179 15.4614 3.06146 15.1039 3.05863 14.7323C3.05581 14.3606 3.20073 14.0053 3.46152 13.7446C3.94234 13.2637 4.64737 13.0818 5.30861 13.2672L7.92279 13.9974L9.95811 11.8203ZM4.73236 5.48543L4.6193 5.60049C4.58294 5.6478 4.56706 5.70788 4.57513 5.76757C4.58319 5.82725 4.61456 5.88165 4.66234 5.91884L12.0276 11.6716L8.38062 15.5762L4.95029 14.6158C4.86394 14.5918 4.77311 14.5909 4.68699 14.6132C4.60088 14.6355 4.52252 14.6802 4.45984 14.7429L6.88778 17.1708L5.95417 18.1723C5.81491 18.3116 5.73752 18.5013 5.73903 18.6997C5.74053 18.8982 5.82081 19.0891 5.9622 19.2305C6.10359 19.3719 6.29451 19.4522 6.49295 19.4537C6.6914 19.4552 6.88112 19.3778 7.02038 19.2385L8.01988 18.3029L10.4498 20.7329L10.5165 20.6501C10.5548 20.5907 10.5799 20.5236 10.5903 20.4534C10.6007 20.3831 10.5961 20.3112 10.5769 20.2424L9.61555 16.8111L13.5201 13.1641L19.2909 20.5513C19.3807 20.6411 19.5244 20.6432 19.6129 20.5547L19.7073 20.4603C19.8028 20.3647 19.868 20.2428 19.8948 20.1096C19.9216 19.9764 19.9088 19.8377 19.8581 19.7105L16.2432 10.6187L19.7602 7.33134C19.8831 7.20864 19.9803 7.06251 20.0462 6.90134C20.112 6.74016 20.1452 6.5671 20.1439 6.39205C20.1426 6.21701 20.1067 6.04342 20.0384 5.88122C19.9701 5.71903 19.8707 5.57141 19.7459 5.44683L19.7139 5.41488C19.5852 5.29429 19.4343 5.19991 19.27 5.13715C19.1056 5.07439 18.931 5.04448 18.7561 5.04913C18.5812 5.05378 18.4094 5.09291 18.2507 5.16427C18.0919 5.23563 17.9493 5.33782 17.8309 5.46499L14.571 8.95046L5.48319 5.3336C5.35596 5.28287 5.21727 5.27012 5.08409 5.29691C4.95091 5.3237 4.82902 5.38888 4.73335 5.48444" fill="#1975FF"/>
</svg>
