<svg width="21" height="20" viewBox="0 0 21 20" fill="none" xmlns="http://www.w3.org/2000/svg">
<path d="M14.8223 14.1238C15.136 13.8386 15.1476 13.3492 14.8479 13.0494L11.5984 9.8V4.75C11.5984 4.33579 11.2627 4 10.8484 4C10.4342 4 10.0984 4.33579 10.0984 4.75V9.98579C10.0984 10.251 10.2038 10.5054 10.3913 10.6929L13.7979 14.0994C14.0781 14.3796 14.529 14.3904 14.8223 14.1238Z" fill="#141C24"/>
<path d="M10.8984 20C9.53177 20 8.2401 19.7375 7.02344 19.2125C5.80677 18.6875 4.74427 17.9708 3.83594 17.0625C2.9276 16.1542 2.21094 15.0917 1.68594 13.875C1.16094 12.6583 0.898438 11.3583 0.898438 9.975C0.898438 8.60833 1.16094 7.31667 1.68594 6.1C2.21094 4.88333 2.9276 3.825 3.83594 2.925C4.74427 2.025 5.80677 1.3125 7.02344 0.7875C8.2401 0.2625 9.5401 0 10.9234 0C12.2901 0 13.5818 0.2625 14.7984 0.7875C16.0151 1.3125 17.0734 2.025 17.9734 2.925C18.8734 3.825 19.5859 4.88333 20.1109 6.1C20.6359 7.31667 20.8984 8.61667 20.8984 10C20.8984 11.3667 20.6359 12.6583 20.1109 13.875C19.5859 15.0917 18.8734 16.1542 17.9734 17.0625C17.0734 17.9708 16.0151 18.6875 14.7984 19.2125C13.5818 19.7375 12.2818 20 10.8984 20ZM10.8984 18.5C13.2651 18.5 15.2734 17.6708 16.9234 16.0125C18.5734 14.3542 19.3984 12.35 19.3984 10C19.3984 7.63333 18.5734 5.625 16.9234 3.975C15.2734 2.325 13.2651 1.5 10.8984 1.5C8.54844 1.5 6.54427 2.325 4.88594 3.975C3.2276 5.625 2.39844 7.63333 2.39844 10C2.39844 12.35 3.2276 14.3542 4.88594 16.0125C6.54427 17.6708 8.54844 18.5 10.8984 18.5Z" fill="#141C24"/>
</svg>
