<svg width="17" height="16" viewBox="0 0 17 16" xmlns="http://www.w3.org/2000/svg">
<path fill-rule="evenodd" clip-rule="evenodd" d="M12.8984 4C12.8984 6.20914 11.1076 8 8.89844 8C6.6893 8 4.89844 6.20914 4.89844 4C4.89844 1.79086 6.6893 0 8.89844 0C11.1076 0 12.8984 1.79086 12.8984 4ZM11.3984 4C11.3984 5.38071 10.2792 6.5 8.89844 6.5C7.51773 6.5 6.39844 5.38071 6.39844 4C6.39844 2.61929 7.51773 1.5 8.89844 1.5C10.2792 1.5 11.3984 2.61929 11.3984 4Z" fill="inherit"/>
<path fill-rule="evenodd" clip-rule="evenodd" d="M0.898438 13.772V16H16.8984V13.772C16.8984 12.1046 15.8641 10.6121 14.3029 10.0267L14.1653 9.97507C10.7695 8.70165 7.02736 8.70165 3.63159 9.97507L3.49394 10.0267C1.93273 10.6121 0.898438 12.1046 0.898438 13.772ZM4.15827 11.3796C7.21447 10.2335 10.5824 10.2335 13.6386 11.3796L13.7762 11.4312C14.752 11.7971 15.3984 12.7299 15.3984 13.772V14.5H2.39844V13.772C2.39844 12.7299 3.04487 11.7971 4.02063 11.4312L4.15827 11.3796Z" fill="inherit"/>
</svg>
